<svg viewBox="0 0 26 26" fill="none" xmlns="http://www.w3.org/2000/svg">
    <path
        d="M12.4457 1.10908C12.72 0.367795 13.7685 0.367796 14.0428 1.10908L16.9028 8.83833C16.9891 9.07139 17.1728 9.25514 17.4059 9.34138L25.1351 12.2015C25.8764 12.4758 25.8764 13.5242 25.1351 13.7985L17.4059 16.6586C17.1728 16.7448 16.9891 16.9286 16.9028 17.1617L14.0428 24.8909C13.7685 25.6322 12.72 25.6322 12.4457 24.8909L9.58561 17.1617C9.49937 16.9286 9.31562 16.7448 9.08256 16.6586L1.35331 13.7985C0.612028 13.5242 0.612028 12.4758 1.35331 12.2015L9.08256 9.34138C9.31562 9.25514 9.49937 9.07139 9.58561 8.83833L12.4457 1.10908Z"
        fill="url(#paint0_linear_130_12515)" />
    <defs>
        <linearGradient id="paint0_linear_130_12515" x1="13.2442" y1="-1.04892" x2="13.2442" y2="27.0489"
            gradientUnits="userSpaceOnUse">
            <stop stop-color="#9FA6FF" />
            <stop offset="1" stop-color="#55FFAD" />
        </linearGradient>
    </defs>
</svg>