<svg viewBox="0 0 61 59" fill="none" xmlns="http://www.w3.org/2000/svg">
    <path
        d="M29.6922 1.80377C30.0916 1.25632 30.9084 1.25632 31.3078 1.80377L36.5498 8.98815C37.268 9.9725 38.5102 10.4246 39.6932 10.1323L48.3268 7.99815C48.9846 7.83553 49.6103 8.36056 49.5644 9.03667L48.9619 17.9097C48.8794 19.1254 49.5404 20.2703 50.6345 20.8066L58.62 24.7214C59.2285 25.0197 59.3703 25.8241 58.9005 26.3125L52.7356 32.7224C51.8909 33.6006 51.6613 34.9025 52.1547 36.0167L55.7556 44.1485C56.03 44.7682 55.6216 45.4755 54.9478 45.5477L46.1049 46.4952C44.8933 46.625 43.8806 47.4748 43.5424 48.6454L41.0738 57.1893C40.8857 57.8404 40.1182 58.1197 39.5556 57.7419L32.1726 52.7837C31.161 52.1043 29.839 52.1043 28.8274 52.7837L21.4444 57.7419C20.8818 58.1197 20.1143 57.8404 19.9262 57.1893L17.4576 48.6454C17.1194 47.4748 16.1067 46.625 14.8951 46.4952L6.05225 45.5477C5.37843 45.4755 4.97003 44.7682 5.24442 44.1485L8.84531 36.0167C9.33867 34.9025 9.10911 33.6006 8.26443 32.7224L2.09945 26.3125C1.62968 25.8241 1.77152 25.0197 2.38001 24.7214L10.3655 20.8066C11.4596 20.2703 12.1206 19.1254 12.0381 17.9097L11.4356 9.03667C11.3897 8.36056 12.0154 7.83553 12.6733 7.99815L21.3068 10.1323C22.4898 10.4246 23.732 9.9725 24.4502 8.98815L29.6922 1.80377Z"
        stroke="white" stroke-width="2" />
</svg>