<svg viewBox="0 0 256 138" fill="none" xmlns="http://www.w3.org/2000/svg">
    <path
        d="M54.0428 33.5893C54.5099 31.7188 54.9416 29.7774 55.3916 27.792C55.6445 26.6759 56.6378 25.8869 57.7821 25.8869H71.3394C71.1132 27.6533 70.8537 29.5196 70.5854 31.4612C70.417 32.6801 69.3755 33.5893 68.145 33.5893H54.0428ZM77.2486 48.7475C78.5306 40.9994 79.8494 32.1878 80.8373 24.2929C81.2866 20.7027 78.4662 17.5684 74.848 17.5684H73.2476L57.2638 18.9465C57.7563 16.605 58.6593 12.8854 59.0902 10.6055H89.4362V2.04045H36.1922V10.6055H49.3031C47.9695 17.9265 46.0947 26.2407 44.2041 33.4237C43.1147 37.5625 46.3298 41.6728 50.6039 41.4513L69.5657 40.4689C69.1964 42.8104 68.2617 46.5292 67.8308 48.7475H34.4071V57.4358H91.2213V48.7475H77.2486Z"
        fill="#06102B" />
    <path
        d="M119.228 45.9747H129.939C129.631 46.4676 129.323 46.8989 129.015 47.3303C125.753 47.5767 122.491 47.8232 119.228 48.0697V45.9747ZM108.087 32.7266V30.8781H111.165V32.7266H108.087ZM108.087 23.9767H111.165V25.8253H108.087V23.9767ZM122.244 23.9767V25.8253H119.228V23.9767H122.244ZM122.244 32.7266H119.228V30.8781H122.244V32.7266ZM144.158 13.8096C144.219 9.86603 144.219 5.67596 144.219 1.30102H135.663C135.663 5.73757 135.663 10.4525 135.663 14.3345L130.616 14.642V22.9435L135.381 22.636C134.95 32.5567 133.817 39.8128 129.939 45.9747V39.7512H119.228V38.1491H123.418C126.815 38.1491 129.569 35.3952 129.569 31.9981V24.7052C129.569 21.3082 126.815 18.5543 123.418 18.5543H119.228V17.0138H130.37V10.6671H119.228V8.51042C123.045 8.07909 126.676 7.58614 129.877 6.90833L126.122 0.315119C119.105 1.79397 108.703 2.84149 99.4695 3.27282C100.27 4.99815 101.131 7.771 101.378 9.55794C104.517 9.49633 107.841 9.37309 111.165 9.18823V10.6671H99.5926V17.0138H111.165V18.5543H107.221C103.824 18.5543 101.07 21.3082 101.07 24.7052V31.9981C101.07 35.3952 103.824 38.1491 107.221 38.1491H111.165V39.7512H100.824V45.9747H111.165V48.6243C106.61 48.9324 102.486 49.1788 99.1002 49.3637L99.7751 54.4313C99.9486 55.7336 101.113 56.6701 102.422 56.5566C109.294 55.9605 117.868 55.1824 126.245 54.3548C127.784 55.8953 129.385 57.8055 130.185 59.2227C140.28 51.0274 143.13 38.9656 143.992 22.3286L147.666 22.0049C147.358 40.4906 146.866 47.7 145.696 49.3021C145.081 50.1647 144.527 50.4112 143.604 50.4112C142.373 50.4112 140.28 50.4112 137.818 50.1647C138.85 51.9174 139.653 54.3257 140.084 56.4571C140.336 57.6998 141.371 58.6946 142.638 58.6971C144.752 58.7014 146.694 58.6192 148.159 58.2984C150.313 57.8055 151.852 57.066 153.391 54.7245C155.36 51.8284 155.791 42.5856 156.284 17.63C156.284 15.0286 154.06 12.9829 151.468 13.1993L144.158 13.8096Z"
        fill="#06102B" />
    <path
        d="M186.199 33.2812H195.247V24.6545H168.902V33.2812H177.274V46.406C173.149 47.0222 169.333 47.5767 166.317 47.9465L168.126 54.7713C168.458 56.0267 169.709 56.8074 170.983 56.555C178.725 55.0209 188.394 53.1166 197.402 51.2123L196.786 43.2634C193.278 43.8796 189.707 44.4342 186.199 44.9888V33.2812ZM222.208 18.8008V10.0509H216.853L221.161 6.35377C220.237 5.25734 218.761 3.93228 217.188 2.66464C215.048 0.939395 212.003 1.08989 209.881 2.83803L207.558 4.75167C209.528 6.23053 211.867 8.26394 213.529 10.0509H205.711C205.65 6.84671 205.65 3.58092 205.773 0.376741H196.109C196.109 3.58092 196.171 6.84671 196.232 10.0509H166.502V18.8008H196.663C198.017 40.1209 202.387 58.6681 213.283 58.6681C219.746 58.6681 222.7 55.9569 223.993 43.6331C220.638 42.4043 216.188 44.3775 215.149 47.7963C214.852 48.7742 214.497 49.2405 214.083 49.2405C210.451 49.2405 207.25 35.4378 206.081 18.8008H222.208Z"
        fill="#06102B" />
    <path
        d="M2.15289 120.312C1.90667 125.303 1.35269 130.787 0.0600586 134.3C0.910354 134.529 2.17766 134.915 3.39117 135.346C4.85505 135.866 6.59507 135.135 6.93467 133.619C7.72721 130.081 8.256 125.629 8.49293 121.36L2.15289 120.312ZM8.92381 121.298C9.47779 125.365 10.0318 130.664 10.0933 134.238L14.2741 133.097C15.3907 132.792 16.1464 131.75 16.0526 130.597C15.7837 127.288 15.258 123.176 14.6483 119.819L8.92381 121.298ZM42.1013 120.682C41.3011 120.682 41.178 120.127 41.178 118.895V116.492H48.4414V109.899H41.9167L42.2284 109.789C43.4418 109.364 44.0875 108.086 43.6058 106.894C43.4121 106.414 43.2097 105.925 43.0246 105.462H48.3798V98.8688H46.4716C47.0872 96.7122 47.7643 94.1242 48.5645 91.5978L42.7169 90.1806C42.4091 92.707 41.6704 96.2809 41.0549 98.8688H36.9924L40.0085 97.8213C39.7623 95.7263 38.9005 92.4605 37.8541 90.0574L32.9298 91.6595C33.7916 93.8777 34.5302 96.7122 34.7764 98.8688H32.4989V105.462H40.6856L36.623 106.694C36.9924 107.68 37.4232 108.851 37.731 109.899H32.5605V116.492H34.1609V118.833C34.1609 124.317 35.3304 126.597 41.2396 126.597H44.8097C45.4036 126.597 46.0494 126.584 46.6636 126.534C47.799 126.442 48.4481 125.37 48.35 124.235C48.234 122.894 48.153 121.426 48.072 120.251C47.2103 120.559 45.5483 120.682 44.625 120.682H42.1013ZM57.4898 87.6433C57.4898 84.2462 54.7359 81.4924 51.3388 81.4924H29.9092C26.5122 81.4924 23.7583 84.2462 23.7583 87.6433V112.98C22.8965 110.268 21.6655 106.756 20.5575 103.983L14.9561 106.14C15.3254 107.187 15.6947 108.358 16.0641 109.529L11.5706 110.145C16.0025 104.599 20.3113 98.0062 23.5121 91.5978L17.172 87.4077C15.9409 90.3654 14.4637 93.3848 12.9248 96.1576L12.2196 96.1992C11.2117 96.2585 10.5594 95.1415 11.0839 94.2789C13.3869 90.4911 15.5637 86.2212 17.172 82.1702L10.1549 79.2124C8.24672 85.6208 4.7997 92.3372 3.63018 94.0626C2.90873 95.2261 2.23948 96.1023 1.52047 96.6741C0.942889 97.1334 0.563903 97.9249 0.825503 98.6149C1.34264 99.979 1.88122 101.611 2.27853 102.88C2.50787 103.613 3.34857 103.987 4.09109 103.791C5.0277 103.544 6.43827 103.293 8.8007 102.997C7.38497 105.154 6.21544 106.756 5.53835 107.557C4.16067 109.248 3.13595 110.456 2.04718 111.16C1.41171 111.571 1.0089 112.376 1.28136 113.082C1.79412 114.41 2.33956 115.999 2.71898 117.262C2.95385 118.044 3.86454 118.47 4.64234 118.223C6.41789 117.658 9.78286 116.953 17.9107 115.568C17.972 115.854 18.0401 116.134 18.1082 116.404C18.3014 117.172 19.1586 117.61 19.8852 117.297L23.7583 115.629V127.645C23.0196 124.687 21.8501 120.928 20.7421 117.847L15.387 119.758C16.5565 123.455 17.9107 128.323 18.4031 131.527L23.7583 129.432V137.627H31.5756V89.1947H49.5493V129.124C49.5493 129.925 49.3031 130.171 48.5029 130.233C47.7643 130.233 45.4868 130.233 43.6402 130.11C44.2878 131.493 44.9658 133.573 45.3978 135.415C45.6827 136.63 46.7357 137.575 47.9829 137.539C50.8627 137.455 53.0426 137.143 54.7814 136.148C56.8742 134.854 57.4898 132.882 57.4898 129.185V87.6433Z"
        fill="#06102B" />
    <path
        d="M83.5886 115.999H107.164V118.156H83.5886V115.999ZM83.5886 107.557H107.164V109.714H83.5886V107.557ZM83.5886 99.1769H107.164V101.334H83.5886V99.1769ZM110.861 124.872C114.258 124.872 117.012 122.118 117.012 118.721V98.6114C117.012 95.2144 114.258 92.4605 110.861 92.4605H99.6542C99.9619 91.5978 100.27 90.7352 100.577 89.8109H121.136V81.6772H69.3081V89.8109H90.2364C90.1133 90.6735 89.9902 91.5978 89.8055 92.4605H80.3834C76.9863 92.4605 74.2324 95.2144 74.2324 98.6114V118.721C74.2324 122.118 76.9863 124.872 80.3834 124.872H82.7269C78.2334 127.029 71.9549 129.37 66.846 130.603C68.0968 131.779 69.581 133.376 70.8818 134.889C72.2046 136.429 74.2917 137.154 76.2244 136.534C82.0263 134.674 88.6853 131.975 93.4372 129.493L87.7743 124.872H103.04L97.5613 129.555C102.835 131.43 108.346 133.977 112.324 136.088C113.971 136.962 115.969 136.924 117.532 135.909L124.091 131.65C120.09 129.74 113.565 127.09 107.471 124.872H110.861Z"
        fill="#06102B" />
    <path
        d="M154.56 97.9446H135.232V104.599H154.56V99.8548C156.222 101.457 158.192 103.86 159.054 105.216C166.502 101.457 168.533 95.0485 168.841 89.1331H174.565V93.8161C174.565 100.841 175.858 103.922 182.629 103.922H185.399C186.753 103.922 188.169 103.86 189.092 103.367C188.846 101.334 188.661 98.2527 188.538 96.0344C187.738 96.3425 186.26 96.5273 185.337 96.5273H183.552C182.875 96.5273 182.752 95.7263 182.752 93.9393V87.0271C182.752 83.63 179.998 80.8762 176.601 80.8762H166.866C163.469 80.8762 160.716 83.63 160.716 87.0271V87.4694C160.716 91.1665 160.162 95.0485 154.56 98.0062V97.9446ZM157.084 89.1331H146.189L149.882 87.1613C149.064 85.0858 147.52 82.1388 146.022 79.6507C145.701 79.1165 145.026 78.9206 144.462 79.1875L138.556 81.9853C139.726 84.142 141.08 86.8532 142.003 89.1331H132.585V96.096H157.084V89.1331ZM154.745 106.448H135.232V113.103H154.745V106.448ZM177.15 113.842C175.673 116.553 173.888 118.895 171.672 120.928C169.087 118.895 166.932 116.492 165.332 113.842H177.15ZM146.989 127.214H142.865V122.161H146.989V127.214ZM183.552 105.216L181.398 105.524H155.914V113.842H162.131L157.207 115.568C159.3 119.45 161.7 122.839 164.532 125.796C161.577 127.275 158.253 128.384 154.622 129.185V121.287C154.622 117.89 151.868 115.136 148.471 115.136H141.506C138.109 115.136 135.355 117.89 135.355 121.287V136.764H142.865V134.3H154.622V130.849C155.914 132.882 157.207 135.532 157.884 137.381C163.116 136.025 167.733 134.176 171.795 131.65C174.74 133.493 178.03 134.991 181.689 136.145C183.9 136.842 186.229 135.693 187.465 133.73C188.595 131.936 189.906 130.133 191 129C186.691 128.261 182.752 127.029 179.305 125.488C182.546 122.005 185.123 117.672 187.007 112.374C187.997 109.589 186.534 106.596 183.852 105.354L183.552 105.216Z"
        fill="#06102B" />
    <path
        d="M226.024 89.1331H213.836L217.53 87.1613C216.711 85.0858 215.167 82.1388 213.67 79.6507C213.348 79.1165 212.673 78.9206 212.11 79.1875L206.204 81.9853C207.373 84.142 208.728 86.8532 209.651 89.1331H199.679V96.096H226.024V89.1331ZM223.439 104.599V97.9446H202.326V104.599H223.439ZM223.316 106.448H202.326V113.103H223.316V106.448ZM215.929 122.161V127.214H209.959V122.161H215.929ZM223.562 121.287C223.562 117.89 220.808 115.136 217.411 115.136H208.6C205.203 115.136 202.449 117.89 202.449 121.287V136.764H209.959V134.3H223.562V121.287ZM255.939 99.1153H245.167V80.1367H235.811V99.1153H225.716V107.927H235.811V137.565H245.167V107.927H255.939V99.1153Z"
        fill="#06102B" />
</svg>