<svg viewBox="0 0 237 95" fill="none" xmlns="http://www.w3.org/2000/svg">
    <path
        d="M116.768 3C117.538 1.66667 119.462 1.66667 120.232 3L129.758 19.5C130.528 20.8333 129.566 22.5 128.026 22.5H108.974C107.434 22.5 106.472 20.8333 107.242 19.5L116.768 3Z"
        fill="#C1E9FF" />
    <path
        d="M3 49.232C1.66666 48.4622 1.66667 46.5377 3 45.7679L19.5 36.2417C20.8333 35.4719 22.5 36.4341 22.5 37.9737L22.5 57.0263C22.5 58.5659 20.8333 59.5281 19.5 58.7583L3 49.232Z"
        fill="#C1E9FF" />
    <rect x="15" y="16" width="207" height="63" rx="31.5" fill="#C1E9FF" />
    <path
        d="M234 45.7679C235.333 46.5378 235.333 48.4623 234 49.2321L217.5 58.7583C216.167 59.5281 214.5 58.5659 214.5 57.0263L214.5 37.9737C214.5 36.4341 216.167 35.4719 217.5 36.2417L234 45.7679Z"
        fill="#C1E9FF" />
    <path
        d="M120.232 92C119.462 93.3333 117.538 93.3333 116.768 92L107.242 75.5C106.472 74.1667 107.434 72.5 108.974 72.5L128.026 72.5C129.566 72.5 130.528 74.1667 129.758 75.5L120.232 92Z"
        fill="#C1E9FF" />
</svg>